<svg xmlns="http://www.w3.org/2000/svg" version="1.1" xmlns:xlink="http://www.w3.org/1999/xlink" xmlns:svgjs="http://svgjs.dev/svgjs" width="1000" height="1000" viewBox="0 0 1000 1000"><rect width="1000" height="1000" fill="#ffffff"></rect><g transform="matrix(0.7,0,0,0.7,149.57575757575756,252.55031645945968)"><svg viewBox="0 0 396 280" data-background-color="#ffffff" preserveAspectRatio="xMidYMid meet" height="707" width="1000" xmlns="http://www.w3.org/2000/svg" xmlns:xlink="http://www.w3.org/1999/xlink"><g id="tight-bounds" transform="matrix(1,0,0,1,0.2400000000000091,0.000006717565270264458)"><svg viewBox="0 0 395.52 280" height="280" width="395.52"><g><svg viewBox="0 0 395.52 280" height="280" width="395.52"><g><svg viewBox="0 0 395.52 280" height="280" width="395.52"><g><svg viewBox="0 0 395.52 280" height="280" width="395.52"><g><svg viewBox="0 0 395.52 280" height="280" width="395.52"><g transform="matrix(1,0,0,1,141.21012371872777,74.00336708925556)"><svg viewBox="0 0 113.09975256254442 131.99326582148888" height="131.99326582148888" width="113.09975256254442"><g><svg xmlns="http://www.w3.org/2000/svg" xmlns:xlink="http://www.w3.org/1999/xlink" version="1.1" x="0" y="0" viewBox="19.98221206665039 10.793023109436035 110.02680969238281 128.406982421875" style="enable-background:new 0 0 150 150;" xml:space="preserve" height="131.99326582148888" width="113.09975256254442" class="icon-o-0" data-fill-palette-color="accent" id="o-0"><path d="M129.9 96.9l-8.3-19.7c0 0 0-0.1-0.1-0.1-2.1-3.3-2.7-7.4-1.8-11.1 0.6-2.5 0.9-3.9 0.9-4.8 0-14-5.6-27.1-15.9-36.7C94.6 14.8 81.2 10 67.1 10.9 41.3 12.5 20.6 34 20 60c-0.3 11.4 3.2 22.3 10.1 31.4 5.7 7.6 9 17.2 9.4 27.4h15.2c0.6 0 1 0.4 1 1s-0.4 1-1 1H39.5c0 0.1 0 0.1 0 0.2v3.4h22.6c0.6 0 1 0.4 1 1s-0.4 1-1 1H39.5v3.7h15.2c0.6 0 1 0.4 1 1s-0.4 1-1 1H39.5v6.1c0 0.5 0.5 1 1 1h54.7c0.3 0 0.6-0.1 0.8-0.4 0.2-0.2 0.3-0.5 0.2-0.8l-2-14.3c0-2.8 2.4-5.1 5.2-5.1h11.9c4 0 7.2-3.2 7.2-7.2V98.3H129c0.3 0 0.6-0.2 0.8-0.5C130 97.6 130.1 97.2 129.9 96.9zM28.9 60.2c0 0.5-0.5 1-1 1 0 0 0 0 0 0-0.6 0-1-0.5-1-1 0.5-22.3 18.4-40.9 40.7-42.3 0.9-0.1 1.9-0.1 2.8-0.1 0.6 0 1 0.4 1 1s-0.4 1-1 1c-0.9 0-1.8 0-2.7 0.1C46.4 21.1 29.4 38.8 28.9 60.2zM48.2 72.3c-0.2 0.3-0.5 0.5-0.9 0.5-0.1 0-0.2 0-0.3 0-0.5-0.1-0.8-0.5-0.7-1l0.9-17-4.8 0.8c-0.4 0.1-0.8-0.1-1-0.4-0.2-0.3-0.3-0.7-0.1-1.1l11.8-22c0.2-0.4 0.7-0.6 1.2-0.5 0.5 0.1 0.8 0.5 0.7 1l-0.9 17 4.8-0.8c0.4-0.1 0.8 0.1 1 0.4 0.2 0.3 0.2 0.7 0.1 1L48.2 72.3zM79.9 65.1l-14 26.1c-0.2 0.3-0.5 0.5-0.9 0.5-0.1 0-0.2 0-0.3 0-0.5-0.1-0.8-0.5-0.7-1l1.1-20.4-6 1c-0.4 0.1-0.8-0.1-1-0.4-0.2-0.3-0.3-0.7-0.1-1.1l14-26.1c0.2-0.4 0.7-0.6 1.1-0.5 0.5 0.1 0.8 0.5 0.7 1l-1.1 20.4 6-1c0.4-0.1 0.8 0.1 1 0.4C80.1 64.3 80.1 64.7 79.9 65.1zM99.7 53.5l-11.8 22c-0.2 0.3-0.5 0.5-0.9 0.5-0.1 0-0.2 0-0.3 0-0.4-0.1-0.8-0.5-0.7-1l1-17-4.8 0.8c-0.4 0.1-0.8-0.1-1-0.4C81 58 81 57.6 81.1 57.3l11.8-22c0.2-0.4 0.7-0.6 1.2-0.5 0.5 0.1 0.8 0.5 0.7 1l-1 17 4.8-0.8c0.4-0.1 0.8 0.1 1 0.4C99.9 52.8 99.9 53.2 99.7 53.5z" fill="#d90000" data-fill-palette-color="accent"></path></svg></g></svg></g><path d="M61.215 102.794L61.785 100.697 87.042 107.56 86.473 109.657ZM67.389 85.109C67.842 84.003 68.438 83.104 69.176 82.411 69.912 81.724 70.872 81.115 72.056 80.583V80.583L72.788 82.203C71.825 82.688 71.066 83.203 70.511 83.748 69.956 84.292 69.506 84.988 69.159 85.834V85.834C68.415 87.65 68.623 89.495 69.781 91.369 70.937 93.249 73.415 94.967 77.214 96.522V96.522C81.056 98.096 84.035 98.695 86.15 98.321 88.269 97.955 89.74 96.769 90.562 94.761V94.761C90.881 93.983 91.071 93.235 91.134 92.518 91.191 91.798 91.135 91.046 90.965 90.263V90.263L82.264 86.7 80.728 90.452 78.911 89.947 81.344 84.007 92.796 88.697C93.364 91.079 93.214 93.33 92.347 95.449V95.449C91.254 98.117 89.384 99.761 86.736 100.379 84.085 101.003 80.617 100.437 76.33 98.681V98.681C73.519 97.53 71.343 96.185 69.803 94.645 68.262 93.105 67.316 91.514 66.965 89.869 66.621 88.228 66.762 86.641 67.389 85.109ZM81.451 60.237L103.907 73.682 102.416 76.174 77.101 72.337C79.263 73.391 81.862 74.826 84.898 76.643V76.643L97.586 84.24 96.526 86.01 74.071 72.565 75.562 70.074 100.851 73.953C98.125 72.554 95.877 71.325 94.108 70.266V70.266L80.371 62.041ZM86.754 53.458L88.083 51.739 108.793 67.743 107.464 69.462ZM91.937 47.424L102.405 36.821 103.576 38.357 99.256 42.732 116.521 59.777 114.967 61.351 97.702 44.307 93.298 48.767ZM106.017 33.641L107.653 32.211 124.877 51.918 123.241 53.347ZM126.503 18.998L141.266 40.611 138.869 42.249 117.486 28.165C119.009 30.027 120.768 32.419 122.763 35.34V35.34L131.105 47.552 129.402 48.715 114.639 27.103 117.037 25.465 138.377 39.577C136.488 37.165 134.961 35.108 133.798 33.405V33.405L124.767 20.184ZM141.945 11.212C143.032 10.716 144.082 10.468 145.095 10.468 146.101 10.471 147.218 10.683 148.446 11.106V11.106L147.871 12.788C146.837 12.483 145.931 12.339 145.153 12.356 144.376 12.374 143.572 12.572 142.74 12.952V12.952C140.955 13.767 139.843 15.254 139.405 17.414 138.962 19.575 139.592 22.524 141.298 26.258V26.258C143.022 30.035 144.784 32.51 146.582 33.685 148.378 34.869 150.262 35.01 152.235 34.109V34.109C153 33.759 153.651 33.345 154.188 32.865 154.722 32.379 155.195 31.792 155.608 31.105V31.105L151.702 22.552 148.014 24.237 147.036 22.625 152.874 19.959 158.014 31.217C156.798 33.342 155.149 34.881 153.066 35.832V35.832C150.443 37.03 147.955 36.948 145.601 35.586 143.242 34.227 141.1 31.441 139.175 27.227V27.227C137.914 24.464 137.248 21.994 137.179 19.817 137.109 17.64 137.509 15.832 138.378 14.393 139.251 12.96 140.439 11.9 141.945 11.212ZM175.251 1.915L177.458 1.461 174.009 18.434 176.073 28.467 173.896 28.915 171.84 18.921 161.884 4.665 164.208 4.187 172.56 16.708ZM190.855 0.02C193.6-0.157 195.83 0.83 197.547 2.981 199.271 5.131 200.277 8.454 200.567 12.95V12.95C200.851 17.373 200.284 20.771 198.865 23.143 197.446 25.522 195.354 26.801 192.59 26.979V26.979C189.865 27.154 187.638 26.16 185.907 23.997 184.169 21.842 183.158 18.552 182.874 14.129V14.129C182.589 9.706 183.175 6.294 184.633 3.892 186.083 1.484 188.157 0.194 190.855 0.02ZM190.978 1.929C188.913 2.061 187.371 3.104 186.353 5.056 185.329 7.015 184.945 9.989 185.202 13.979V13.979C185.455 17.916 186.221 20.783 187.501 22.58 188.773 24.371 190.429 25.201 192.467 25.07V25.07C194.572 24.935 196.125 23.912 197.126 22.001 198.126 20.084 198.497 17.117 198.239 13.1V13.1C197.741 5.373 195.321 1.649 190.978 1.929ZM221.572 1.771L219.737 21.059C219.54 23.139 218.762 24.798 217.403 26.037 216.045 27.275 214.213 27.785 211.907 27.566V27.566C209.575 27.344 207.864 26.504 206.776 25.046 205.688 23.582 205.244 21.799 205.444 19.7V19.7L207.278 0.412 209.441 0.618 207.625 19.716C207.461 21.437 207.746 22.812 208.48 23.84 209.213 24.869 210.417 25.463 212.092 25.622V25.622C213.766 25.781 215.055 25.418 215.957 24.531 216.86 23.645 217.391 22.354 217.552 20.66V20.66L219.369 1.562ZM244.148 7.46L237.529 32.782 234.72 32.048 231.314 6.671C230.909 9.042 230.258 11.939 229.364 15.362V15.362L225.623 29.67 223.628 29.148 230.247 3.826 233.056 4.56 236.413 29.924C236.993 26.915 237.543 24.413 238.065 22.418V22.418L242.114 6.928ZM260.162 14.014C261.25 14.509 262.125 15.139 262.789 15.903 263.448 16.665 264.02 17.648 264.506 18.852V18.852L262.859 19.521C262.411 18.54 261.925 17.761 261.402 17.186 260.88 16.611 260.202 16.133 259.37 15.755V15.755C257.584 14.941 255.732 15.078 253.815 16.163 251.892 17.246 250.08 19.656 248.379 23.392V23.392C246.659 27.171 245.945 30.124 246.238 32.252 246.522 34.384 247.651 35.899 249.625 36.798V36.798C250.391 37.146 251.131 37.366 251.845 37.456 252.562 37.541 253.315 37.513 254.105 37.374V37.374L258 28.817 254.309 27.137 254.885 25.341 260.726 28 255.599 39.264C253.196 39.74 250.953 39.504 248.87 38.555V38.555C246.245 37.36 244.675 35.428 244.159 32.758 243.638 30.086 244.337 26.642 246.256 22.425V22.425C247.514 19.661 248.942 17.539 250.54 16.059 252.138 14.579 253.765 13.695 255.422 13.407 257.075 13.126 258.655 13.328 260.162 14.014ZM294.067 37.321L279.428 59.112 277.809 57.833 284.853 47.383C286.83 44.428 289 41.289 291.362 37.966V37.966L274.306 51.122 272.657 49.819 281.322 30.033C280.266 31.369 278.067 33.867 274.723 37.529V37.529C274.536 37.765 274.232 38.107 273.809 38.556V38.556L265.278 47.932 263.66 46.653 281.449 27.352 283.783 29.196 275.13 48.417 291.702 35.453ZM300.974 44.029L302.499 45.577 283.854 63.946 282.33 62.398ZM316.812 63.605L296.119 79.632 294.341 77.336 307.124 55.151C305.356 56.782 303.074 58.681 300.277 60.847V60.847L288.585 69.903 287.322 68.272 308.014 52.246 309.792 54.541 296.979 76.686C299.274 74.656 301.236 73.009 302.867 71.746V71.746L315.525 61.943ZM323.535 75.684C324.978 78.379 325.326 80.975 324.58 83.472 323.835 85.968 321.296 88.376 316.965 90.694V90.694C312.61 93.026 309.128 93.834 306.519 93.118 303.913 92.408 301.949 90.818 300.625 88.346V88.346L298.371 84.135 321.446 71.782ZM322.03 76.841L320.821 74.581 301.012 85.186 302.312 87.614C303.332 89.52 304.892 90.68 306.991 91.094 309.087 91.501 312.045 90.682 315.864 88.638V88.638C318.536 87.207 320.418 85.802 321.512 84.422 322.611 83.038 323.144 81.75 323.111 80.556 323.074 79.357 322.714 78.118 322.03 76.841ZM333.085 96.773C333.521 98.028 333.668 99.192 333.526 100.266 333.39 101.338 333.01 102.453 332.388 103.609V103.609L330.782 102.832C331.267 101.829 331.552 100.9 331.636 100.044 331.716 99.196 331.597 98.315 331.279 97.401V97.401C330.86 96.197 330.128 95.352 329.083 94.867 328.039 94.383 326.901 94.354 325.672 94.781V94.781C324.449 95.207 323.578 95.894 323.061 96.845 322.535 97.791 322.253 99.256 322.215 101.241V101.241C322.149 103.533 321.742 105.339 320.992 106.659 320.239 107.988 318.901 108.987 316.978 109.656V109.656C315.654 110.116 314.349 110.245 313.063 110.042 311.779 109.845 310.636 109.334 309.636 108.509 308.635 107.684 307.9 106.596 307.431 105.247V105.247C306.962 103.898 306.807 102.598 306.966 101.349 307.123 100.093 307.547 98.832 308.238 97.567V97.567L309.844 98.345C309.316 99.468 308.988 100.518 308.861 101.495 308.728 102.475 308.849 103.503 309.224 104.581V104.581C309.726 106.025 310.608 107.015 311.868 107.552 313.133 108.081 314.56 108.069 316.149 107.516V107.516C317.568 107.023 318.57 106.297 319.155 105.337 319.74 104.377 320.07 102.888 320.145 100.869V100.869C320.221 98.525 320.625 96.72 321.358 95.454 322.091 94.189 323.265 93.276 324.879 92.714V92.714C325.957 92.34 327.052 92.256 328.163 92.463 329.274 92.671 330.269 93.144 331.148 93.885 332.029 94.631 332.675 95.594 333.085 96.773ZM92.447 174.898L93.017 176.994 67.76 183.858 67.19 181.761ZM98.118 188.485C98.571 189.591 98.777 190.65 98.737 191.662 98.694 192.667 98.438 193.775 97.966 194.985V194.985L96.308 194.344C96.654 193.322 96.834 192.423 96.848 191.645 96.861 190.868 96.695 190.056 96.348 189.21V189.21C95.604 187.394 94.162 186.224 92.022 185.701 89.88 185.172 86.909 185.686 83.11 187.241V187.241C79.268 188.815 76.724 190.477 75.479 192.227 74.225 193.974 74.009 195.852 74.831 197.859V197.859C75.15 198.637 75.539 199.304 75.997 199.86 76.461 200.412 77.029 200.909 77.699 201.348V201.348L86.4 197.785 84.863 194.032 86.512 193.119 88.945 199.058 77.492 203.748C75.416 202.449 73.945 200.74 73.077 198.621V198.621C71.984 195.952 72.165 193.469 73.618 191.172 75.07 188.868 77.939 186.838 82.226 185.082V185.082C85.036 183.931 87.531 183.364 89.709 183.381 91.887 183.398 93.678 183.869 95.081 184.795 96.478 185.723 97.491 186.953 98.118 188.485ZM109.219 209.316L86.763 222.761 85.272 220.269 100.608 199.767C98.658 201.176 96.166 202.788 93.13 204.606V204.606L80.442 212.203 79.382 210.433 101.838 196.988 103.33 199.479 87.968 219.939C90.488 218.196 92.633 216.796 94.403 215.736V215.736L108.139 207.512ZM112.363 212.93L113.692 214.649 92.982 230.654 91.653 228.934ZM114.969 216.017L125.436 226.62 123.885 227.771 119.566 223.396 102.301 240.44 100.747 238.865 118.012 221.821 113.608 217.361ZM127.316 228.169L128.951 229.599 111.727 249.306 110.091 247.876ZM144.758 240.455L129.995 262.068 127.598 260.43 132.94 235.39C131.759 237.485 130.171 239.994 128.176 242.915V242.915L119.834 255.127 118.131 253.963 132.894 232.351 135.292 233.989 129.908 259.001C131.467 256.363 132.828 254.193 133.992 252.49V252.49L143.022 239.269ZM155.738 244.76C156.825 245.257 157.7 245.888 158.363 246.653 159.02 247.415 159.591 248.399 160.076 249.603V249.603L158.428 250.271C157.981 249.289 157.497 248.51 156.975 247.934 156.452 247.358 155.775 246.88 154.944 246.5V246.5C153.158 245.685 151.307 245.819 149.388 246.902 147.464 247.983 145.649 250.39 143.944 254.125V254.125C142.22 257.902 141.502 260.854 141.793 262.983 142.074 265.114 143.201 266.631 145.175 267.532V267.532C145.94 267.881 146.679 268.102 147.394 268.193 148.111 268.278 148.864 268.252 149.653 268.113V268.113L153.559 259.561 149.87 257.876 150.447 256.082 156.286 258.747 151.145 270.005C148.742 270.478 146.5 270.239 144.417 269.288V269.288C141.794 268.091 140.226 266.156 139.713 263.486 139.195 260.813 139.898 257.37 141.822 253.156V253.156C143.083 250.393 144.514 248.272 146.114 246.794 147.713 245.316 149.342 244.434 150.998 244.148 152.652 243.869 154.232 244.073 155.738 244.76ZM181.773 252.563L183.98 253.017 174.11 267.251 172.046 277.284 169.869 276.836 171.925 266.842 168.406 249.813 170.73 250.291 173.461 265.093ZM192.988 253.021C195.732 253.198 197.818 254.463 199.245 256.815 200.679 259.168 201.251 262.593 200.962 267.09V267.09C200.677 271.513 199.679 274.81 197.968 276.98 196.255 279.158 194.017 280.158 191.253 279.98V279.98C188.528 279.805 186.446 278.533 185.007 276.167 183.56 273.806 182.979 270.414 183.263 265.991V265.991C183.548 261.568 184.567 258.259 186.32 256.064 188.067 253.862 190.29 252.848 192.988 253.021ZM192.865 254.93C190.8 254.797 189.137 255.633 187.877 257.438 186.61 259.25 185.848 262.151 185.592 266.141V266.141C185.338 270.078 185.731 273.019 186.769 274.966 187.802 276.905 189.337 277.94 191.376 278.071V278.071C193.481 278.207 195.152 277.391 196.389 275.625 197.627 273.852 198.375 270.957 198.634 266.94V266.94C199.131 259.213 197.208 255.209 192.865 254.93ZM218.508 252.188L220.342 271.476C220.54 273.556 220.088 275.332 218.988 276.804 217.887 278.277 216.184 279.123 213.878 279.342V279.342C211.546 279.564 209.708 279.061 208.364 277.835 207.02 276.601 206.248 274.935 206.048 272.835V272.835L204.214 253.547 206.377 253.342 208.193 272.44C208.357 274.161 208.896 275.457 209.81 276.329 210.724 277.201 212.019 277.558 213.694 277.398V277.398C215.368 277.239 216.565 276.639 217.284 275.599 218.003 274.558 218.282 273.19 218.121 271.496V271.496L216.305 252.398ZM235.963 247.407L242.582 272.729 239.773 273.463 224.385 253C225.191 255.266 226.042 258.11 226.937 261.533V261.533L230.677 275.841 228.681 276.363 222.062 251.04 224.871 250.306 240.211 270.782C239.244 267.875 238.5 265.424 237.978 263.428V263.428L233.929 247.938ZM246.405 241.943C247.492 241.448 248.542 241.201 249.555 241.202 250.561 241.206 251.678 241.42 252.905 241.844V241.844L252.329 243.526C251.294 243.219 250.389 243.074 249.611 243.09 248.834 243.107 248.029 243.305 247.197 243.683V243.683C245.411 244.497 244.298 245.982 243.858 248.141 243.411 250.302 244.039 253.251 245.739 256.988V256.988C247.46 260.766 249.218 263.244 251.015 264.421 252.809 265.607 254.694 265.75 256.668 264.851V264.851C257.433 264.503 258.085 264.089 258.622 263.61 259.157 263.124 259.631 262.538 260.044 261.851V261.851L256.149 253.294 252.458 254.974 251.482 253.361 257.323 250.702 262.45 261.966C261.232 264.09 259.581 265.627 257.497 266.575V266.575C254.872 267.77 252.384 267.685 250.032 266.321 247.674 264.959 245.535 262.17 243.616 257.954V257.954C242.358 255.19 241.695 252.719 241.628 250.542 241.561 248.365 241.963 246.557 242.834 245.12 243.708 243.688 244.898 242.629 246.405 241.943ZM274.002 223.463L291.815 242.746 290.197 244.024 281.66 234.754C279.243 232.147 276.691 229.31 274.004 226.243V226.243L282.858 245.88 281.208 247.183 263.964 234.176C265.019 235.512 266.941 238.23 269.73 242.33V242.33C269.916 242.566 270.179 242.941 270.518 243.456V243.456L277.666 253.925 276.048 255.204 261.385 233.432 263.718 231.588 280.416 244.453 271.638 225.331ZM277.919 219.435L279.444 217.887 298.089 236.256 296.564 237.804ZM291.225 202.756L311.917 218.782 310.139 221.078 285.463 214.251C287.484 215.554 289.893 217.289 292.69 219.456V219.456L304.383 228.511 303.12 230.142 282.427 214.115 284.205 211.82 308.851 218.686C306.311 216.973 304.226 215.485 302.595 214.222V214.222L289.937 204.418ZM295.002 195.219C296.445 192.524 298.412 190.794 300.903 190.031 303.394 189.267 306.805 190.045 311.136 192.363V192.363C315.491 194.695 318.094 197.144 318.945 199.713 319.799 202.275 319.565 204.792 318.242 207.263V207.263L315.988 211.474 292.913 199.121ZM296.799 195.829L295.589 198.089 315.398 208.694 316.697 206.266C317.718 204.359 317.818 202.418 316.999 200.442 316.176 198.472 313.854 196.465 310.035 194.42V194.42C307.363 192.99 305.15 192.202 303.395 192.058 301.634 191.91 300.266 192.181 299.291 192.871 298.313 193.566 297.483 194.552 296.799 195.829ZM301.721 178.501C302.157 177.246 302.765 176.242 303.543 175.488 304.315 174.731 305.303 174.093 306.509 173.572V173.572L307.286 175.178C306.284 175.663 305.484 176.215 304.887 176.835 304.299 177.45 303.845 178.215 303.528 179.129V179.129C303.109 180.333 303.159 181.449 303.678 182.478 304.196 183.506 305.071 184.234 306.3 184.662V184.662C307.523 185.087 308.633 185.087 309.628 184.663 310.628 184.248 311.758 183.273 313.019 181.74V181.74C314.492 179.983 315.932 178.82 317.339 178.249 318.754 177.674 320.423 177.721 322.346 178.389V178.389C323.67 178.85 324.774 179.558 325.657 180.515 326.542 181.466 327.121 182.576 327.393 183.844 327.666 185.112 327.568 186.42 327.099 187.77V187.77C326.63 189.119 325.945 190.234 325.045 191.115 324.143 192.003 323.029 192.729 321.702 193.292V193.292L320.925 191.686C322.036 191.133 322.944 190.512 323.65 189.825 324.362 189.139 324.905 188.257 325.28 187.179V187.179C325.782 185.735 325.705 184.412 325.049 183.209 324.385 182.009 323.258 181.134 321.669 180.581V180.581C320.251 180.088 319.014 180.036 317.96 180.426 316.906 180.816 315.723 181.779 314.411 183.316V183.316C312.898 185.107 311.461 186.272 310.101 186.81 308.741 187.348 307.254 187.336 305.64 186.775V186.775C304.561 186.4 303.651 185.787 302.908 184.935 302.166 184.083 301.679 183.094 301.449 181.968 301.22 180.836 301.311 179.68 301.721 178.501ZM61.664 143.089C61.664 137.479 66.212 132.931 71.822 132.931 77.432 132.931 81.98 137.479 81.98 143.089 81.98 148.699 77.432 153.247 71.822 153.247 66.212 153.247 61.664 148.699 61.664 143.089ZM313.988 143.089C313.988 137.479 318.536 132.931 324.147 132.931 329.757 132.931 334.305 137.479 334.305 143.089 334.305 148.699 329.757 153.247 324.147 153.247 318.536 153.247 313.988 148.699 313.988 143.089Z" fill="#0063db" data-fill-palette-color="primary"></path></svg></g></svg></g></svg></g></svg></g><defs></defs></svg><rect width="395.52" height="280" fill="none" stroke="none" visibility="hidden"></rect></g></svg></g></svg>